# xmcd
#
# Track frame offsets: 
#        150
#        12019
#        26304
#        38220
#        51304
#        65673
#        77509
#        91097
#        104986
#        118914
#        130881
#        145499
#        157278
#        169167
#        181060
#
# Disc length: 2583 seconds
#
# Revision: 0
# Processed by: cddbd v1.5.2PL0 Copyright (c) Steve Scherf et al.
# Submitted via: ExactAudioCopy v0.95b3
#
DISCID=cf0a150f
DTITLE=The Grass Roots  - Let's Live For Today (1967)
DYEAR=1900
DGENRE=
TTITLE0=Things I Should Have Said
TTITLE1=Wake Up, Wake Up
TTITLE2=Tip Of My Tongue
TTITLE3=Is It Any Wonder
TTITLE4=Let's Live For Today
TTITLE5=Beatin' 'Round The Bush
TTITLE6=Out Of Touch
TTITLE7=Won't You See Me
TTITLE8=Where Were You When I Needed You
TTITLE9=No Exit
TTITLE10=This Precious Time
TTITLE11=House Of Stone
TTITLE12=Depressed Feeling
TTITLE13=Tip Of My Tongue (Single Version)
TTITLE14=Let's Live For Today (Single Version)
EXTD=
EXTT0=
EXTT1=
EXTT2=
EXTT3=
EXTT4=
EXTT5=
EXTT6=
EXTT7=
EXTT8=
EXTT9=
EXTT10=
EXTT11=
EXTT12=
EXTT13=
EXTT14=
PLAYORDER=
